<svg width="425" height="310" viewBox="0 0 425 310" fill="none" xmlns="http://www.w3.org/2000/svg">
<path d="M313.5 6.58919H390.5L126.5 390.96H49.5L313.5 6.58919ZM93.5 188.891C79.2 188.891 66.3667 186.694 55 182.302C43.6333 177.909 33.7333 171.686 25.3 163.632C17.2333 155.579 11 146.061 6.6 135.079C2.2 123.731 0 111.101 0 97.1909V91.6999C0 78.1554 2.2 65.7091 6.6 54.361C11 43.0129 17.2333 33.3121 25.3 25.2586C33.7333 17.2052 43.6333 10.982 55 6.58919C66.3667 2.1964 79.2 0 93.5 0C107.8 0 120.633 2.1964 132 6.58919C143.367 10.982 153.083 17.2052 161.15 25.2586C169.583 33.3121 176 43.0129 180.4 54.361C184.8 65.7091 187 78.1554 187 91.6999V97.1909C187 111.101 184.8 123.731 180.4 135.079C176 146.061 169.583 155.579 161.15 163.632C153.083 171.686 143.367 177.909 132 182.302C120.633 186.694 107.8 188.891 93.5 188.891ZM93.5 131.784C100.833 131.784 106.7 129.222 111.1 124.097C115.5 118.606 117.7 109.637 117.7 97.1909V91.6999C117.7 79.2536 115.5 70.4679 111.1 65.343C106.7 59.852 100.833 57.1065 93.5 57.1065C86.1667 57.1065 80.3 59.852 75.9 65.343C71.5 70.4679 69.3 79.2536 69.3 91.6999V97.1909C69.3 109.637 71.5 118.606 75.9 124.097C80.3 129.222 86.1667 131.784 93.5 131.784ZM346.5 397C332.2 397 319.367 394.804 308 390.411C296.633 386.018 286.733 379.795 278.3 371.741C270.233 363.688 264 354.17 259.6 343.188C255.2 331.84 253 319.211 253 305.3V299.809C253 286.265 255.2 273.818 259.6 262.47C264 251.122 270.233 241.421 278.3 233.368C286.733 225.314 296.633 219.091 308 214.698C319.367 210.306 332.2 208.109 346.5 208.109C360.8 208.109 373.633 210.306 385 214.698C396.367 219.091 406.083 225.314 414.15 233.368C422.583 241.421 429 251.122 433.4 262.47C437.8 273.818 440 286.265 440 299.809V305.3C440 319.211 437.8 331.84 433.4 343.188C429 354.17 422.583 363.688 414.15 371.741C406.083 379.795 396.367 386.018 385 390.411C373.633 394.804 360.8 397 346.5 397ZM346.5 339.893C353.833 339.893 359.7 337.331 364.1 332.206C368.5 326.715 370.7 317.746 370.7 305.3V299.809C370.7 287.363 368.5 278.577 364.1 273.452C359.7 267.961 353.833 265.216 346.5 265.216C339.167 265.216 333.3 267.961 328.9 273.452C324.5 278.577 322.3 287.363 322.3 299.809V305.3C322.3 317.746 324.5 326.715 328.9 332.206C333.3 337.331 339.167 339.893 346.5 339.893Z" fill="#FF5A1E"/>
</svg>
