<svg width="138" height="45" viewBox="0 0 138 45" fill="none" xmlns="http://www.w3.org/2000/svg">
<path d="M21.4978 0.686523C17.2455 0.687168 13.0888 1.98152 9.55338 4.40592C6.01798 6.83031 3.26263 10.2759 1.63577 14.3069C0.00889155 18.3379 -0.416447 22.7734 0.413532 27.0524C1.24351 31.3314 3.29153 35.2619 6.29862 38.3468C9.30571 41.4316 13.1368 43.5324 17.3075 44.3833C21.4782 45.2342 25.8012 44.7971 29.7298 43.1274C33.6584 41.4576 37.0162 38.63 39.3787 35.0023C41.741 31.3746 43.0019 27.1097 43.0019 22.7467C42.9953 16.8975 40.7274 11.29 36.696 7.15427C32.6645 3.01858 27.1987 0.692559 21.4978 0.686523ZM23.9969 31.3577C21.8501 34.1503 18.7264 35.9736 15.2898 36.4403C15.2898 36.4403 17.792 35.4628 20.1673 31.4456C22.441 27.194 22.6347 23.9816 24.7748 21.2219C28.3917 16.5564 33.0533 17.6609 33.0533 17.6609C32.5166 15.9147 30.9352 14.8395 28.6902 14.9405C27.9599 12.5132 24.8003 11.614 22.5489 12.8162C20.8754 13.7056 19.0781 14.9958 17.0712 14.9535C16.8475 14.9583 16.6238 14.9485 16.4012 14.9242C15.1496 14.7262 13.9947 14.1155 13.1115 13.1843C12.9717 15.1881 14.2292 17.0647 15.7153 17.6902C18.2557 18.7556 20.0498 17.4621 20.0498 17.4621C18.4453 21.8032 15.5587 25.5212 11.7936 28.0964C7.55441 25.9429 4.76001 22.0201 4.17256 16.6151C5.58448 12.4194 8.40207 8.87413 12.1235 6.61066C15.8449 4.34721 20.2287 3.5125 24.4939 4.25522C28.7591 4.99795 32.6289 7.26986 35.4141 10.6664C38.1993 14.0629 39.719 18.3634 39.7026 22.8021C39.7026 23.0106 39.7026 23.2159 39.7026 23.4243C37.9524 26.0017 35.5936 28.0814 32.8467 29.4688C30.1 30.8562 27.0551 31.5062 23.9969 31.3577Z" fill="#FF5A1E"/>
<path d="M85.4037 24.5898C85.4037 26.2905 84.9803 27.5937 84.1335 28.4995C83.2868 29.4052 82.1552 29.8516 80.739 29.8386C79.4688 29.8386 78.4865 29.4519 77.7922 28.6786C77.0979 27.9054 76.7517 26.7445 76.7537 25.1958V16.7412H72.7877V25.7008C72.7877 28.2769 73.4418 30.2078 74.7501 31.4936C76.0584 32.7794 77.8483 33.4224 80.1197 33.4224C81.135 33.4306 82.1422 33.237 83.0856 32.8522C83.9696 32.486 84.7619 31.9204 85.4037 31.1972V32.4091C85.4037 34.1967 84.9941 35.5217 84.1749 36.3839C83.3556 37.2462 82.0758 37.6807 80.3357 37.6872C79.394 37.6926 78.4608 37.5031 77.5921 37.13C76.6253 36.805 75.7277 36.2942 74.947 35.6248L73.1592 38.7003C74.1817 39.5656 75.3726 40.1965 76.6522 40.5509C77.9109 40.9845 79.2302 41.2046 80.558 41.2026C86.4453 41.2026 89.3889 38.128 89.3889 31.979V16.7412H85.4037V24.5898Z" fill="#FF5A1E"/>
<path d="M111.318 16.7412L104.977 27.6653L98.9183 16.7412H94.7394V34.2076H98.3753V22.5959L104.018 32.3765H105.739L111.48 22.6285V34.2076H115.081L115.05 16.7412H111.318Z" fill="#FF5A1E"/>
<path d="M136.103 20.8606C135.333 19.5147 134.212 18.4158 132.867 17.6872C131.419 16.9355 129.819 16.5437 128.196 16.5437C126.574 16.5437 124.973 16.9355 123.525 17.6872C122.18 18.4148 121.058 19.5139 120.289 20.8606C119.502 22.2609 119.1 23.8544 119.127 25.4707C119.101 27.0931 119.503 28.6926 120.289 30.1004C121.054 31.4539 122.176 32.5592 123.525 33.29C124.973 34.0418 126.574 34.4335 128.196 34.4335C129.819 34.4335 131.419 34.0418 132.867 33.29C134.216 32.5581 135.336 31.453 136.103 30.1004C136.89 28.6926 137.291 27.0931 137.265 25.4707C137.291 23.8544 136.89 22.2609 136.103 20.8606ZM131.813 29.4291C130.841 30.395 129.54 30.935 128.186 30.935C126.833 30.935 125.533 30.395 124.561 29.4291C123.614 28.4258 123.142 27.1062 123.143 25.4707C123.146 23.8352 123.619 22.5157 124.561 21.5122C125.534 20.5487 126.834 20.0103 128.186 20.0103C129.54 20.0103 130.84 20.5487 131.813 21.5122C132.77 22.5157 133.248 23.8352 133.248 25.4707C133.248 27.1062 132.77 28.4258 131.813 29.4291Z" fill="#FF5A1E"/>
<path d="M61.6245 22.2972L68.5249 12.1777H63.6727L59.0112 18.961L54.3464 12.1777H49.5578L56.5216 22.4634L48.9609 33.4756H53.7462L59.0112 25.8647L64.3047 33.4756H66.8164V34.2053H66.8196V38.7145H70.3634V30.6085H67.2769L61.6245 22.2972Z" fill="#FF5A1E"/>
</svg>
