<svg width="133" height="40" viewBox="0 0 133 40" fill="none" xmlns="http://www.w3.org/2000/svg">
<g clip-path="url(#clip0_1_1216)">
<path d="M0 5.33333C0 2.38781 2.3536 0 5.25692 0H127.743C130.646 0 133 2.38782 133 5.33333V34.6667C133 37.6122 130.646 40 127.743 40H5.25692C2.3536 40 0 37.6122 0 34.6667V5.33333Z" fill="#333333"/>
<path d="M28.0434 24.2885C31.1925 22.5181 33.5801 21.1691 33.7859 21.0644C34.4439 20.7058 35.1239 19.7572 33.7859 19.0204C33.3538 18.7888 31.0278 17.4816 28.0434 15.7963L23.9066 20.0738L28.0432 24.2885H28.0434Z" fill="#FFD900"/>
<path d="M23.9067 20.0739L10.7338 33.6667C11.0428 33.7087 11.3919 33.6247 11.8037 33.3931C12.6677 32.909 21.8272 27.7874 28.0438 24.2895L23.9067 20.0739Z" fill="#F43249"/>
<path d="M23.9065 20.0738L28.0432 15.817C28.0432 15.817 12.73 7.26083 11.8033 6.75597C11.4546 6.54368 11.0634 6.48092 10.7134 6.54368L23.9065 20.0736V20.0738Z" fill="#00EE76"/>
<path d="M23.9067 20.0738L10.7133 6.54395C10.1778 6.67062 9.72528 7.15495 9.72528 8.14507V32.0649C9.72528 32.9717 10.0755 33.6247 10.7336 33.6875L23.9064 20.0736L23.9067 20.0738Z" fill="#00D3FF"/>
<path d="M66.942 16.0272C64.5752 16.0272 62.6196 17.9025 62.6196 20.4736C62.6196 23.0238 64.5547 24.9201 66.9422 24.9201C69.3296 24.9201 71.2644 23.0448 71.2644 20.4736C71.2644 17.9025 69.3296 16.0272 66.942 16.0272ZM66.942 23.1507C65.645 23.1507 64.5136 22.0335 64.5136 20.4538C64.5136 18.8522 65.6459 17.7569 66.942 17.7569C68.2381 17.7569 69.3704 18.8522 69.3704 20.4538C69.3704 22.0335 68.2381 23.1507 66.942 23.1507ZM57.5358 16.0272C55.1482 16.0272 53.2132 17.9025 53.2132 20.4736C53.2132 23.0238 55.1482 24.9201 57.5358 24.9201C59.9231 24.9201 61.8581 23.0448 61.8581 20.4736C61.8581 17.9025 59.9231 16.0272 57.5355 16.0272H57.5358ZM57.5358 23.1507C56.2385 23.1507 55.1074 22.0335 55.1074 20.4538C55.1074 18.8522 56.2397 17.7569 57.5358 17.7569C58.8328 17.7569 59.9641 18.8522 59.9641 20.4538C59.9641 22.0335 58.8521 23.1507 57.5358 23.1507ZM46.3592 17.3971V19.2724H50.7224C50.5984 20.326 50.2495 21.1056 49.7346 21.6329C49.0968 22.2859 48.1088 23.0028 46.3592 23.0028C43.6624 23.0028 41.5843 20.7692 41.5843 18.0084C41.5843 15.2475 43.6636 12.9717 46.3592 12.9717C47.8201 12.9717 48.8705 13.5619 49.6525 14.3209L50.9486 12.9927C49.8574 11.9184 48.3966 11.0967 46.3592 11.0967C42.6744 11.0967 39.5869 14.194 39.5869 17.9664C39.5869 21.739 42.6744 24.8363 46.3592 24.8363C48.3555 24.8363 49.838 24.1623 51.0316 22.8971C52.2459 21.6539 52.6164 19.9044 52.6164 18.4927C52.6164 18.0504 52.5756 17.6498 52.5132 17.3124L46.3592 17.3971ZM92.0942 18.851C91.744 17.8605 90.6331 16.0272 88.4094 16.0272C86.1859 16.0272 84.3543 17.8187 84.3543 20.4736C84.3543 22.9599 86.1859 24.9201 88.6154 24.9201C90.5912 24.9201 91.7234 23.6768 92.1965 22.9599L90.7356 21.9485C90.2412 22.6865 89.5829 23.1706 88.6154 23.1706C87.6479 23.1706 86.969 22.7282 86.5361 21.8216L92.2785 19.3564L92.0942 18.851ZM86.2483 20.3479C86.2075 18.6404 87.5455 17.7557 88.4914 17.7557C89.2532 17.7557 89.8707 18.1351 90.0967 18.7043L86.2483 20.3479ZM81.5759 24.6254H83.47V11.6018H81.5759V24.6254ZM78.4893 17.0178H78.4278C77.9957 16.4905 77.1932 16.0272 76.1632 16.0272C74.0019 16.0272 72.0466 17.9874 72.0466 20.4736C72.0466 22.9599 74.0225 24.8993 76.1632 24.8993C77.1921 24.8993 77.9948 24.4357 78.4278 23.8875H78.4893V24.5197C78.4893 26.2272 77.6036 27.1327 76.1838 27.1327C75.031 27.1327 74.3103 26.269 74.0225 25.5521L72.3764 26.269C72.8492 27.4492 74.1054 28.9032 76.1838 28.9032C78.4063 28.9032 80.2798 27.5542 80.2798 24.2881V16.3009H78.4893V17.0178ZM76.328 23.1507C75.031 23.1507 73.9406 22.0335 73.9406 20.4748C73.9406 18.9161 75.0319 17.7776 76.328 17.7776C77.6047 17.7776 78.6335 18.9161 78.6335 20.4748C78.6326 22.0125 77.6036 23.1507 76.328 23.1507ZM100.924 11.602H96.396V24.6254H98.29V19.6937H100.924C103.024 19.6937 105.082 18.1339 105.082 15.6479C105.082 13.1616 103.024 11.6018 100.924 11.6018V11.602ZM100.985 17.8826H98.3094V13.414H100.985C102.385 13.414 103.208 14.6153 103.208 15.6476C103.189 16.6592 102.386 17.8826 100.985 17.8826ZM112.636 16.0062C111.278 16.0062 109.857 16.6174 109.281 18.0084L110.949 18.7253C111.32 18.0084 111.978 17.7767 112.678 17.7767C113.666 17.7767 114.654 18.3877 114.674 19.4621V19.589C114.324 19.3783 113.605 19.0827 112.699 19.0827C110.888 19.0827 109.055 20.1153 109.055 22.0125C109.055 23.7617 110.537 24.8783 112.184 24.8783C113.46 24.8783 114.159 24.2881 114.591 23.5931H114.653V24.6046H116.484V19.6097C116.464 17.3131 114.797 16.006 112.636 16.006V16.0062ZM112.41 23.1297C111.792 23.1297 110.927 22.8131 110.927 22.0344C110.927 21.0228 111.997 20.6435 112.924 20.6435C113.747 20.6435 114.138 20.8331 114.653 21.0858C114.509 22.287 113.5 23.1297 112.41 23.1297ZM123.092 16.302L120.931 21.9285H120.869L118.626 16.3018H116.589L119.964 24.1831L118.05 28.5877H120.025L125.191 16.3018H123.092L123.092 16.302ZM106.132 24.6254H108.026V11.6018H106.132V24.6254Z" fill="white"/>
</g>
<defs>
<clipPath id="clip0_1_1216">
<rect width="133" height="40" fill="white"/>
</clipPath>
</defs>
</svg>
