<svg width="133" height="40" viewBox="0 0 133 40" fill="none" xmlns="http://www.w3.org/2000/svg">
<g clip-path="url(#clip0_1_1227)">
<path d="M0 5.33333C0 2.38781 2.3536 0 5.25692 0H127.743C130.646 0 133 2.38782 133 5.33333V34.6667C133 37.6122 130.646 40 127.743 40H5.25692C2.3536 40 0 37.6122 0 34.6667V5.33333Z" fill="#333333"/>
<path d="M30.0548 20.8146C30.0413 18.4703 31.0882 16.7034 33.2025 15.4006C32.02 13.6818 30.231 12.7365 27.8728 12.5543C25.6399 12.3756 23.197 13.8743 22.3025 13.8743C21.3572 13.8743 19.1955 12.6162 17.4946 12.6162C13.9844 12.6712 10.2539 15.4556 10.2539 21.1206C10.2539 22.7946 10.5555 24.5237 11.1586 26.3043C11.965 28.6487 14.8721 34.3928 17.9046 34.3C19.4903 34.2621 20.6118 33.1587 22.6752 33.1587C24.6777 33.1587 25.7145 34.3 27.4831 34.3C30.5427 34.2553 33.172 29.0337 33.9378 26.6825C29.8346 24.7196 30.0548 20.935 30.0548 20.8146ZM26.4938 10.3303C28.2116 8.26089 28.0558 6.37714 28.0049 5.69995C26.487 5.78933 24.7319 6.74839 23.7324 7.92745C22.6312 9.19245 21.984 10.7565 22.1229 12.52C23.7628 12.6471 25.2605 11.7912 26.4938 10.3303Z" fill="white"/>
<path d="M48.1959 26.6794H46.4557L45.5024 23.6264H42.189L41.2809 26.6794H39.5867L42.8694 16.2855H44.897L48.1959 26.6794ZM45.2151 22.3455L44.353 19.6314C44.2618 19.3541 44.0909 18.7012 43.8388 17.6734H43.8081C43.7078 18.1154 43.5461 18.7684 43.3239 19.6314L42.4771 22.3455H45.2151Z" fill="white"/>
<path d="M56.6381 22.8399C56.6381 24.1146 56.3002 25.1221 55.6243 25.8617C55.0189 26.5201 54.2672 26.849 53.3699 26.849C52.4013 26.849 51.7055 26.4944 51.2817 25.7852H51.2511V29.7333H49.6174V21.652C49.6174 20.8506 49.5967 20.0282 49.5568 19.1847H50.9936L51.0848 20.3727H51.1155C51.6603 19.4776 52.4871 19.0308 53.5967 19.0308C54.4641 19.0308 55.1883 19.38 55.7676 20.079C56.3484 20.7788 56.6381 21.6988 56.6381 22.8399ZM54.9737 22.9009C54.9737 22.1714 54.8128 21.57 54.4894 21.0967C54.1362 20.6031 53.6618 20.3563 53.0672 20.3563C52.6641 20.3563 52.2978 20.4937 51.9706 20.7647C51.6427 21.0381 51.4281 21.395 51.3277 21.8371C51.2771 22.0433 51.2519 22.212 51.2519 22.3448V23.5944C51.2519 24.1396 51.4158 24.5996 51.7438 24.9753C52.0718 25.3509 52.4978 25.5384 53.022 25.5384C53.6373 25.5384 54.1162 25.2963 54.4588 24.8136C54.8021 24.3301 54.9737 23.6928 54.9737 22.9009Z" fill="white"/>
<path d="M65.0959 22.8399C65.0959 24.1146 64.758 25.1221 64.0813 25.8617C63.4767 26.5201 62.725 26.849 61.8277 26.849C60.8591 26.849 60.1633 26.4944 59.7403 25.7852H59.7096V29.7333H58.0759V21.652C58.0759 20.8506 58.0552 20.0282 58.0154 19.1847H59.4522L59.5434 20.3727H59.574C60.1181 19.4776 60.9449 19.0308 62.0553 19.0308C62.9219 19.0308 63.6461 19.38 64.2269 20.079C64.8055 20.7788 65.0959 21.6988 65.0959 22.8399ZM63.4315 22.9009C63.4315 22.1714 63.2698 21.57 62.9464 21.0967C62.5932 20.6031 62.1204 20.3563 61.525 20.3563C61.1212 20.3563 60.7556 20.4937 60.4277 20.7647C60.0997 21.0381 59.8859 21.395 59.7855 21.8371C59.7357 22.0433 59.7096 22.212 59.7096 22.3448V23.5944C59.7096 24.1396 59.8736 24.5996 60.2001 24.9753C60.528 25.3502 60.9541 25.5384 61.4798 25.5384C62.0951 25.5384 62.574 25.2963 62.9166 24.8136C63.2599 24.3301 63.4315 23.6928 63.4315 22.9009Z" fill="white"/>
<path d="M74.552 23.7647C74.552 24.6489 74.2509 25.3682 73.6463 25.9235C72.9819 26.5304 72.057 26.8334 70.8685 26.8334C69.7711 26.8334 68.8914 26.6178 68.2255 26.1859L68.6041 24.798C69.3213 25.2401 70.1083 25.4619 70.9658 25.4619C71.5811 25.4619 72.06 25.3198 72.4041 25.037C72.7466 24.7543 72.9175 24.3747 72.9175 23.9014C72.9175 23.4797 72.7765 23.1243 72.4938 22.8361C72.2125 22.5479 71.7428 22.28 71.0869 22.0324C69.3014 21.3537 68.4095 20.3595 68.4095 19.052C68.4095 18.1976 68.7221 17.497 69.3482 16.9518C69.9719 16.4059 70.8041 16.1333 71.8447 16.1333C72.7727 16.1333 73.5436 16.2981 74.1589 16.6269L73.7505 17.9843C73.1758 17.6657 72.5259 17.5064 71.7987 17.5064C71.224 17.5064 70.775 17.6508 70.4531 17.9383C70.1811 18.1952 70.0447 18.5084 70.0447 18.8794C70.0447 19.2902 70.2003 19.63 70.5129 19.8971C70.7849 20.1439 71.2792 20.411 71.9964 20.6992C72.8738 21.0593 73.5183 21.4802 73.9329 21.9629C74.3459 22.444 74.552 23.0462 74.552 23.7647Z" fill="white"/>
<path d="M79.9533 20.4345H78.1525V24.0733C78.1525 24.9989 78.4698 25.4612 79.1058 25.4612C79.3978 25.4612 79.6399 25.4354 79.8315 25.3839L79.8767 26.6484C79.5548 26.771 79.1311 26.8327 78.6062 26.8327C77.961 26.8327 77.4567 26.632 77.0928 26.2313C76.7303 25.8299 76.5479 25.1566 76.5479 24.2108V20.433H75.4751V19.1833H76.5479V17.811L78.1525 17.3174V19.1833H79.9533V20.4345Z" fill="white"/>
<path d="M88.0784 22.8704C88.0784 24.0224 87.755 24.9682 87.1098 25.7079C86.4331 26.4694 85.535 26.849 84.4155 26.849C83.3366 26.849 82.4776 26.4842 81.8369 25.7547C81.1963 25.0253 80.876 24.1044 80.876 22.9946C80.876 21.8332 81.2055 20.8819 81.8668 20.1423C82.5266 19.4018 83.417 19.0316 84.5366 19.0316C85.6155 19.0316 86.4837 19.3964 87.1389 20.1266C87.7657 20.835 88.0784 21.7496 88.0784 22.8704ZM86.3833 22.9243C86.3833 22.2331 86.2385 21.6403 85.945 21.1459C85.6025 20.5476 85.1128 20.2493 84.4783 20.2493C83.8216 20.2493 83.3228 20.5484 82.9802 21.1459C82.6868 21.6411 82.5419 22.2432 82.5419 22.9555C82.5419 23.6467 82.6868 24.2395 82.9802 24.7332C83.3335 25.3314 83.827 25.6298 84.4638 25.6298C85.0875 25.6298 85.5772 25.3252 85.9304 24.7175C86.2316 24.2138 86.3833 23.6147 86.3833 22.9243Z" fill="white"/>
<path d="M93.3886 20.6491C93.2269 20.6187 93.0545 20.6031 92.8737 20.6031C92.2989 20.6031 91.8545 20.8241 91.5418 21.2669C91.2698 21.6575 91.1334 22.1511 91.1334 22.747V26.6795H89.5004L89.5158 21.545C89.5158 20.6812 89.4951 19.8947 89.4545 19.1855H90.8775L90.9372 20.6195H90.9825C91.1549 20.1266 91.4269 19.7299 91.7993 19.4323C92.1633 19.1644 92.5564 19.0308 92.9802 19.0308C93.1311 19.0308 93.2675 19.0418 93.3886 19.0613V20.6491Z" fill="white"/>
<path d="M100.695 22.5776C100.695 22.8759 100.676 23.1274 100.635 23.3328H95.7338C95.753 24.0732 95.9898 24.6395 96.4449 25.03C96.858 25.3791 97.3921 25.5541 98.048 25.5541C98.7737 25.5541 99.4357 25.4361 100.031 25.1995L100.287 26.3554C99.5913 26.6647 98.7698 26.8185 97.8219 26.8185C96.6817 26.8185 95.7867 26.4765 95.1353 25.7931C94.4855 25.1097 94.1599 24.1919 94.1599 23.0407C94.1599 21.9106 94.4625 20.9694 95.0687 20.2188C95.7032 19.4175 96.5606 19.0168 97.6396 19.0168C98.6993 19.0168 99.5016 19.4175 100.046 20.2188C100.478 20.8554 100.695 21.6427 100.695 22.5776ZM99.1369 22.1456C99.1476 21.652 99.0411 21.2256 98.8197 20.8655C98.5369 20.4024 98.1024 20.1712 97.5177 20.1712C96.9836 20.1712 96.5491 20.3969 96.2173 20.8499C95.9453 21.21 95.7836 21.6419 95.7338 22.1449H99.1369V22.1456Z" fill="white"/>
</g>
<defs>
<clipPath id="clip0_1_1227">
<rect width="133" height="40" fill="white"/>
</clipPath>
</defs>
</svg>
