<svg width="90" height="90" viewBox="0 0 90 90" fill="none" xmlns="http://www.w3.org/2000/svg">
<path d="M28.8 3.6H32.4V0C30.4118 7.2e-06 28.8 1.61175 28.8 3.6Z" fill="white"/>
<path d="M34.2 3.6C33.7805 3.6 32.4 3.6 32.4 3.6C32.4 3.6 32.4 2.37451 32.4 1.8C32.4 1.35127 32.4 0 32.4 0C32.4 0 33.6547 0 34.2 0C35.1941 0 36 0.805889 36 1.8C36 2.79406 35.1941 3.6 34.2 3.6Z" fill="white"/>
<path d="M48.6 0C49.5941 0 50.4 0.805896 50.4 1.8C50.4 2.79415 49.5941 3.6 48.6 3.6C47.6059 3.6 46.8 2.79415 46.8 1.8C46.8 0.805896 47.6059 0 48.6 0Z" fill="white"/>
<path d="M61.2 1.8C61.2 2.21952 61.2 3.6 61.2 3.6C61.2 3.6 59.9746 3.6 59.4 3.59991C58.9512 3.6 57.6 3.59991 57.6 3.59991C57.6 3.59991 57.6 2.34538 57.6 1.79996C57.6 0.805903 58.4059 0 59.3999 0C60.394 0 61.2 0.805896 61.2 1.8Z" fill="white"/>
<path d="M28.8 5.39998C28.8 4.98042 28.8 3.59998 28.8 3.59998C28.8 3.59998 30.0254 3.59998 30.6 3.59998C31.0487 3.59998 32.4 3.59998 32.4 3.59998C32.4 3.59998 32.4 4.85465 32.4 5.39998C32.4 6.39404 31.594 7.19998 30.6 7.19998C29.6059 7.19998 28.8 6.39404 28.8 5.39998Z" fill="white"/>
<path d="M36 7.19998H39.6V3.59998C37.6118 3.59998 36 5.21172 36 7.19998Z" fill="white"/>
<path d="M43.2 3.59998H39.6V7.19998H43.2V3.59998Z" fill="white"/>
<path d="M43.2 3.59998V7.19998H46.8C46.8 5.21172 45.1882 3.59998 43.2 3.59998Z" fill="white"/>
<path d="M57.6 5.39998C57.6 4.98042 57.6 3.59998 57.6 3.59998C57.6 3.59998 58.8254 3.59998 59.4 3.59998C59.8487 3.59998 61.2 3.59998 61.2 3.59998C61.2 3.59998 61.2 4.85465 61.2 5.39998C61.2 6.39404 60.394 7.19998 59.4 7.19998C58.4059 7.19998 57.6 6.39404 57.6 5.39998Z" fill="white"/>
<path d="M39.6 10.8V7.19995H36C36 9.18817 37.6117 10.8 39.6 10.8Z" fill="white"/>
<path d="M43.2 7.19995H39.6V10.8H43.2V7.19995Z" fill="white"/>
<path d="M46.8 7.19995H43.2V10.8H46.8V7.19995Z" fill="white"/>
<path d="M50.4 7.19995H46.8V10.8H50.4V7.19995Z" fill="white"/>
<path d="M50.4 7.19995V10.8H54C54 8.81169 52.3882 7.19995 50.4 7.19995Z" fill="white"/>
<path d="M30.6 10.8C31.0195 10.8 32.4 10.8 32.4 10.8C32.4 10.8 32.4 12.0254 32.4 12.6C32.4 13.0486 32.4 14.4 32.4 14.4C32.4 14.4 31.1456 14.4 30.6 14.4C29.6055 14.4 28.8 13.5938 28.8 12.6C28.8 11.6062 29.6055 10.8 30.6 10.8Z" fill="white"/>
<path d="M32.4 10.8V14.4H36C36 12.4118 34.3882 10.8 32.4 10.8Z" fill="white"/>
<path d="M46.8 10.8H43.2V14.4H46.8V10.8Z" fill="white"/>
<path d="M50.4 10.8H46.8V14.4H50.4V10.8Z" fill="white"/>
<path d="M54 10.8H50.4V14.4H54V10.8Z" fill="white"/>
<path d="M57.6 10.8H54V14.4H57.6V10.8Z" fill="white"/>
<path d="M57.6 10.8V14.4H61.2C61.2 12.4118 59.5882 10.8 57.6 10.8Z" fill="white"/>
<path d="M36 18V14.4H32.4C32.4 16.3882 34.0118 18 36 18Z" fill="white"/>
<path d="M39.6 14.4H36V18H39.6V14.4Z" fill="white"/>
<path d="M43.2 14.4H39.6V18H43.2V14.4Z" fill="white"/>
<path d="M46.8 14.4H43.2V18H46.8V14.4Z" fill="white"/>
<path d="M50.4 14.4H46.8V18H50.4V14.4Z" fill="white"/>
<path d="M54 14.4H50.4V18H54V14.4Z" fill="white"/>
<path d="M57.6 14.4H54V18H57.6V14.4Z" fill="white"/>
<path d="M61.2 14.4H57.6V18H61.2V14.4Z" fill="white"/>
<path d="M39.6 18H36V21.6H39.6V18Z" fill="white"/>
<path d="M43.2 18H39.6V21.6C41.5882 21.6 43.2 19.9882 43.2 18Z" fill="white"/>
<path d="M54 18H50.4V21.6H54V18Z" fill="white"/>
<path d="M61.2 18H57.6V21.6H61.2V18Z" fill="white"/>
<path d="M32.4 23.4C32.4 23.8195 32.4 25.2 32.4 25.2C32.4 25.2 31.1746 25.2 30.6 25.1999C30.1513 25.2 28.8 25.1999 28.8 25.1999C28.8 25.1999 28.8 23.9454 28.8 23.3999C28.8 22.4059 29.6059 21.6 30.5999 21.6C31.594 21.6 32.4 22.4059 32.4 23.4Z" fill="white"/>
<path d="M39.6 21.6H36V25.2H39.6V21.6Z" fill="white"/>
<path d="M46.8 23.4C46.8 23.8195 46.8 25.2 46.8 25.2C46.8 25.2 45.5746 25.2 45 25.1999C44.5513 25.2 43.2 25.1999 43.2 25.1999C43.2 25.1999 43.2 23.9454 43.2 23.3999C43.2001 22.4059 44.0059 21.6 45 21.6C45.9941 21.6 46.8 22.4059 46.8 23.4Z" fill="white"/>
<path d="M50.4 23.4C50.4 22.9804 50.4 21.6 50.4 21.6C50.4 21.6 51.6255 21.6 52.2 21.6C52.6488 21.6 54 21.6 54 21.6C54 21.6 54 22.8547 54 23.4C54 24.394 53.1941 25.2 52.2 25.2C51.2059 25.2 50.4 24.394 50.4 23.4Z" fill="white"/>
<path d="M57.6 23.4C57.6 22.9804 57.6 21.6 57.6 21.6C57.6 21.6 58.8254 21.6 59.4 21.6C59.8487 21.6 61.2 21.6 61.2 21.6C61.2 21.6 61.2 22.8547 61.2 23.4C61.2 24.394 60.394 25.2 59.4 25.2C58.4059 25.2 57.6 24.394 57.6 23.4Z" fill="white"/>
<path d="M32.4 28.8V25.2H28.8C28.8 27.1882 30.4117 28.8 32.4 28.8Z" fill="white"/>
<path d="M36 25.2H32.4V28.8H36V25.2Z" fill="white"/>
<path d="M39.6 25.2H36V28.8C37.9882 28.8 39.6 27.1882 39.6 25.2Z" fill="white"/>
<path d="M43.2 27C43.2 26.5804 43.2 25.2 43.2 25.2C43.2 25.2 44.4255 25.2 45 25.2C45.4487 25.2 46.8 25.2 46.8 25.2C46.8 25.2 46.8 26.4546 46.8 27C46.8 27.994 45.9941 28.8 45 28.8C44.0059 28.8 43.2 27.994 43.2 27Z" fill="white"/>
<path d="M3.6 30.6C3.6 31.0196 3.6 32.4 3.6 32.4C3.6 32.4 2.3746 32.4 1.8 32.4C1.35127 32.4 0 32.4 0 32.4C0 32.4 0 31.1454 0 30.6C4.32e-05 29.606 0.805889 28.8 1.79996 28.8C2.79406 28.8 3.6 29.6059 3.6 30.6Z" fill="white"/>
<path d="M9.00001 28.8C9.41956 28.8 10.8 28.8 10.8 28.8C10.8 28.8 10.8 30.0254 10.8 30.6C10.8 31.0486 10.8 32.4 10.8 32.4C10.8 32.4 9.54564 32.4 9.00001 32.4C8.00556 32.4 7.20001 31.5938 7.20001 30.6C7.20001 29.6062 8.00556 28.8 9.00001 28.8Z" fill="white"/>
<path d="M12.6 32.4C12.1804 32.4 10.8 32.4 10.8 32.4C10.8 32.4 10.8 31.1746 10.8 30.6C10.8 30.1513 10.8 28.8 10.8 28.8C10.8 28.8 12.0547 28.8 12.6 28.8C13.594 28.8 14.4 29.6059 14.4 30.6C14.4 31.5941 13.594 32.4 12.6 32.4Z" fill="white"/>
<path d="M18 32.4H21.6V28.8C19.6118 28.8001 18 30.4118 18 32.4Z" fill="white"/>
<path d="M25.2 28.8H21.6V32.4H25.2V28.8Z" fill="white"/>
<path d="M25.2 28.8V32.4H28.8C28.8 30.4118 27.1882 28.8 25.2 28.8Z" fill="white"/>
<path d="M36 28.8H32.4V32.4H36V28.8Z" fill="white"/>
<path d="M41.4 28.8C42.3941 28.8 43.2 29.6059 43.2 30.6C43.2 31.5942 42.3941 32.4 41.4 32.4C40.4059 32.4 39.6 31.5942 39.6 30.6C39.6 29.6059 40.4059 28.8 41.4 28.8Z" fill="white"/>
<path d="M52.2 28.8C52.6196 28.8 54 28.8 54 28.8C54 28.8 54 30.0254 54 30.6C54 31.0486 54 32.4 54 32.4C54 32.4 52.7456 32.4 52.2 32.4C51.2056 32.4 50.4 31.5938 50.4 30.6C50.4 29.6062 51.2056 28.8 52.2 28.8Z" fill="white"/>
<path d="M57.6 28.8H54V32.4H57.6V28.8Z" fill="white"/>
<path d="M57.6 28.8V32.4H61.2C61.2 30.4118 59.5882 28.8 57.6 28.8Z" fill="white"/>
<path d="M66.6 28.8C67.5941 28.8 68.4 29.6059 68.4 30.6C68.4 31.5942 67.5941 32.4 66.6 32.4C65.6059 32.4 64.8 31.5942 64.8 30.6C64.8 29.6059 65.6059 28.8 66.6 28.8Z" fill="white"/>
<path d="M77.4 28.8C78.3941 28.8 79.2 29.6059 79.2 30.6C79.2 31.5942 78.3941 32.4 77.4 32.4C76.4059 32.4 75.6 31.5942 75.6 30.6C75.6 29.6059 76.4059 28.8 77.4 28.8Z" fill="white"/>
<path d="M82.8 32.4H86.4V28.8C84.4118 28.8001 82.8 30.4118 82.8 32.4Z" fill="white"/>
<path d="M88.2 32.4C87.7805 32.4 86.4 32.4 86.4 32.4C86.4 32.4 86.4 31.1746 86.4 30.6C86.4 30.1513 86.4 28.8 86.4 28.8C86.4 28.8 87.6547 28.8 88.2 28.8C89.1941 28.8 90 29.6059 90 30.6C90 31.5941 89.1941 32.4 88.2 32.4Z" fill="white"/>
<path d="M0 34.2C0 33.7805 0 32.4 0 32.4C0 32.4 1.22545 32.4 1.8 32.4C2.24873 32.4 3.6 32.4 3.6 32.4C3.6 32.4 3.6 33.6547 3.6 34.2C3.6 35.1941 2.79406 36 1.8 36C0.805889 36 0 35.1941 0 34.2Z" fill="white"/>
<path d="M21.6 32.4H18V36H21.6V32.4Z" fill="white"/>
<path d="M28.8 32.4H25.2V36H28.8V32.4Z" fill="white"/>
<path d="M32.4 32.4H28.8V36H32.4V32.4Z" fill="white"/>
<path d="M36 32.4H32.4V36C34.3882 36 36 34.3882 36 32.4Z" fill="white"/>
<path d="M61.2 32.4H57.6V36H61.2V32.4Z" fill="white"/>
<path d="M72 34.2C72 34.6195 72 36 72 36C72 36 70.7746 36 70.2 35.9999C69.7513 36 68.4 35.9999 68.4 35.9999C68.4 35.9999 68.4 34.7454 68.4 34.2C68.4001 33.2059 69.2059 32.4 70.2 32.4C71.1941 32.4 72 33.2059 72 34.2Z" fill="white"/>
<path d="M82.8 34.2C82.8 33.7805 82.8 32.4 82.8 32.4C82.8 32.4 84.0254 32.4 84.6 32.4C85.0487 32.4 86.4 32.4 86.4 32.4C86.4 32.4 86.4 33.6547 86.4 34.2C86.4 35.1941 85.594 36 84.6 36C83.6059 36 82.8 35.1941 82.8 34.2Z" fill="white"/>
<path d="M21.6 39.6V36H18C18 37.9882 19.6117 39.6 21.6 39.6Z" fill="white"/>
<path d="M25.2 36H21.6V39.6H25.2V36Z" fill="white"/>
<path d="M28.8 36H25.2V39.6H28.8V36Z" fill="white"/>
<path d="M37.8 36C38.7942 36 39.6 36.8059 39.6 37.8C39.6 38.7942 38.7942 39.6 37.8 39.6C36.8059 39.6 36 38.7942 36 37.8C36 36.8059 36.8059 36 37.8 36Z" fill="white"/>
<path d="M45 36C45.4196 36 46.8 36 46.8 36C46.8 36 46.8 37.2253 46.8 37.8C46.8 38.2486 46.8 39.6 46.8 39.6C46.8 39.6 45.5456 39.6 45 39.6C44.0056 39.6 43.2 38.7938 43.2 37.8C43.2 36.8061 44.0056 36 45 36Z" fill="white"/>
<path d="M50.4 36H46.8V39.6H50.4V36Z" fill="white"/>
<path d="M50.4 36V39.6H54C54 37.6117 52.3882 36 50.4 36Z" fill="white"/>
<path d="M57.6 37.8C57.6 37.3804 57.6 36 57.6 36C57.6 36 58.8254 36 59.4 36C59.8487 36 61.2 36 61.2 36C61.2 36 61.2 37.2547 61.2 37.8C61.2 38.7941 60.394 39.6 59.4 39.6C58.4059 39.6 57.6 38.7941 57.6 37.8Z" fill="white"/>
<path d="M66.6 36C67.0195 36 68.4 36 68.4 36C68.4 36 68.4 37.2253 68.4 37.8C68.4 38.2486 68.4 39.6 68.4 39.6C68.4 39.6 67.1456 39.6 66.6 39.6C65.6055 39.6 64.8 38.7938 64.8 37.8C64.8 36.8061 65.6055 36 66.6 36Z" fill="white"/>
<path d="M72 36H68.4V39.6H72V36Z" fill="white"/>
<path d="M9.00001 39.6C9.41956 39.6 10.8 39.6 10.8 39.6C10.8 39.6 10.8 40.8253 10.8 41.4C10.8 41.8486 10.8 43.2 10.8 43.2C10.8 43.2 9.54564 43.2 9.00001 43.2C8.00556 43.2 7.20001 42.3937 7.20001 41.4C7.20001 40.4061 8.00556 39.6 9.00001 39.6Z" fill="white"/>
<path d="M14.4 39.6H10.8V43.2H14.4V39.6Z" fill="white"/>
<path d="M16.2 43.2C15.7805 43.2 14.4 43.2 14.4 43.2C14.4 43.2 14.4 41.9745 14.4 41.4C14.4 40.9512 14.4 39.6 14.4 39.6C14.4 39.6 15.6547 39.6 16.2 39.6C17.1941 39.6 18 40.4059 18 41.4C18 42.394 17.1941 43.2 16.2 43.2Z" fill="white"/>
<path d="M28.8 39.6H25.2V43.2H28.8V39.6Z" fill="white"/>
<path d="M50.4 39.6H46.8V43.2H50.4V39.6Z" fill="white"/>
<path d="M54 39.6H50.4V43.2H54V39.6Z" fill="white"/>
<path d="M55.8 43.2C55.3804 43.2 54 43.2 54 43.2C54 43.2 54 41.9745 54 41.4C54 40.9512 54 39.6 54 39.6C54 39.6 55.2547 39.6 55.8 39.6C56.7941 39.6 57.6 40.4059 57.6 41.4C57.6 42.394 56.7941 43.2 55.8 43.2Z" fill="white"/>
<path d="M68.4 41.4C68.4 40.9804 68.4 39.6 68.4 39.6C68.4 39.6 69.6255 39.6 70.2 39.6C70.6488 39.6 72 39.6 72 39.6C72 39.6 72 40.8547 72 41.4C72 42.394 71.1941 43.2 70.2 43.2C69.2059 43.2 68.4 42.394 68.4 41.4Z" fill="white"/>
<path d="M77.4 39.6C77.8195 39.6 79.2 39.6 79.2 39.6C79.2 39.6 79.2 40.8253 79.2 41.4C79.2 41.8486 79.2 43.2 79.2 43.2C79.2 43.2 77.9456 43.2 77.4 43.2C76.4055 43.2 75.6 42.3937 75.6 41.4C75.6 40.4061 76.4055 39.6 77.4 39.6Z" fill="white"/>
<path d="M79.2 39.6V43.2H82.8C82.8 41.2117 81.1882 39.6 79.2 39.6Z" fill="white"/>
<path d="M1.8 43.2C2.21954 43.2 3.6 43.2 3.6 43.2C3.6 43.2 3.6 44.4253 3.6 45C3.6 45.4485 3.6 46.8 3.6 46.8C3.6 46.8 2.34562 46.8 1.8 46.8C0.805543 46.8 0 45.9937 0 45C0 44.0061 0.805543 43.2 1.8 43.2Z" fill="white"/>
<path d="M5.39998 46.8C4.98042 46.8 3.59998 46.8 3.59998 46.8C3.59998 46.8 3.59998 45.5745 3.59998 45C3.59998 44.5512 3.59998 43.2 3.59998 43.2C3.59998 43.2 4.85465 43.2 5.39998 43.2C6.39404 43.2 7.19998 44.0058 7.19998 45C7.19998 45.994 6.39404 46.8 5.39998 46.8Z" fill="white"/>
<path d="M19.8 43.2C20.2195 43.2 21.6 43.2 21.6 43.2C21.6 43.2 21.6 44.4253 21.6 45C21.6 45.4485 21.6 46.8 21.6 46.8C21.6 46.8 20.3456 46.8 19.8 46.8C18.8055 46.8 18 45.9937 18 45C18 44.0061 18.8055 43.2 19.8 43.2Z" fill="white"/>
<path d="M25.2 43.2H21.6V46.8H25.2V43.2Z" fill="white"/>
<path d="M28.8 43.2H25.2V46.8H28.8V43.2Z" fill="white"/>
<path d="M34.2 43.2C35.1942 43.2 36 44.0058 36 45C36 45.9941 35.1942 46.8 34.2 46.8C33.2059 46.8 32.4 45.9941 32.4 45C32.4 44.0058 33.2059 43.2 34.2 43.2Z" fill="white"/>
<path d="M46.8 45C46.8 44.5804 46.8 43.2 46.8 43.2C46.8 43.2 48.0254 43.2 48.6 43.2C49.0487 43.2 50.4 43.2 50.4 43.2C50.4 43.2 50.4 44.4546 50.4 45C50.4 45.994 49.594 46.8 48.6 46.8C47.6059 46.8 46.8 45.994 46.8 45Z" fill="white"/>
<path d="M61.2 46.8H64.8V43.2C62.8118 43.2 61.2 44.8117 61.2 46.8Z" fill="white"/>
<path d="M64.8 43.2V46.8H68.4C68.4 44.8117 66.7882 43.2 64.8 43.2Z" fill="white"/>
<path d="M75.6 45C75.6 45.4195 75.6 46.8 75.6 46.8C75.6 46.8 74.3746 46.8 73.8 46.7999C73.3513 46.8 72 46.7999 72 46.7999C72 46.7999 72 45.5453 72 44.9999C72 44.0059 72.8059 43.2 73.8 43.2C74.7941 43.2 75.6 44.0058 75.6 45Z" fill="white"/>
<path d="M82.8 46.8V43.2H79.2C79.2 45.1882 80.8118 46.8 82.8 46.8Z" fill="white"/>
<path d="M86.4 43.2H82.8V46.8H86.4V43.2Z" fill="white"/>
<path d="M86.4 43.2V46.8H90C90 44.8117 88.3882 43.2 86.4 43.2Z" fill="white"/>
<path d="M14.4 48.6C14.4 49.0196 14.4 50.4 14.4 50.4C14.4 50.4 13.1746 50.4 12.6 50.4C12.1513 50.4 10.8 50.4 10.8 50.4C10.8 50.4 10.8 49.1454 10.8 48.6C10.8 47.606 11.6059 46.8 12.5999 46.8C13.594 46.8 14.4 47.6059 14.4 48.6Z" fill="white"/>
<path d="M25.2 48.6C25.2 48.1805 25.2 46.8 25.2 46.8C25.2 46.8 26.4255 46.8 27 46.8C27.4487 46.8 28.8 46.8 28.8 46.8C28.8 46.8 28.8 48.0547 28.8 48.6C28.8 49.5941 27.9941 50.4 27 50.4C26.0059 50.4 25.2 49.5941 25.2 48.6Z" fill="white"/>
<path d="M37.8 46.8C38.2195 46.8 39.6 46.8 39.6 46.8C39.6 46.8 39.6 48.0254 39.6 48.6C39.6 49.0486 39.6 50.4 39.6 50.4C39.6 50.4 38.3456 50.4 37.8 50.4C36.8055 50.4 36 49.5938 36 48.6C36 47.6062 36.8055 46.8 37.8 46.8Z" fill="white"/>
<path d="M41.4 50.4C40.9804 50.4 39.6 50.4 39.6 50.4C39.6 50.4 39.6 49.1746 39.6 48.6C39.6 48.1513 39.6 46.8 39.6 46.8C39.6 46.8 40.8547 46.8 41.4 46.8C42.394 46.8 43.2 47.6059 43.2 48.6C43.2 49.5941 42.394 50.4 41.4 50.4Z" fill="white"/>
<path d="M55.8 46.8C56.7942 46.8 57.6 47.6059 57.6 48.6C57.6 49.5942 56.7942 50.4 55.8 50.4C54.8059 50.4 54 49.5942 54 48.6C54 47.6059 54.8059 46.8 55.8 46.8Z" fill="white"/>
<path d="M64.8 50.4V46.8H61.2C61.2 48.7883 62.8118 50.4 64.8 50.4Z" fill="white"/>
<path d="M68.4 46.8H64.8V50.4H68.4V46.8Z" fill="white"/>
<path d="M72 46.8H68.4V50.4H72V46.8Z" fill="white"/>
<path d="M75.6 46.8H72V50.4H75.6V46.8Z" fill="white"/>
<path d="M86.4 48.6C86.4 48.1805 86.4 46.8 86.4 46.8C86.4 46.8 87.6255 46.8 88.2 46.8C88.6488 46.8 90 46.8 90 46.8C90 46.8 90 48.0547 90 48.6C90 49.5941 89.1941 50.4 88.2 50.4C87.2059 50.4 86.4 49.5941 86.4 48.6Z" fill="white"/>
<path d="M5.39998 50.3999C5.81952 50.3999 7.19998 50.3999 7.19998 50.3999C7.19998 50.3999 7.19998 51.6252 7.19998 52.1999C7.19998 52.6485 7.19998 53.9999 7.19998 53.9999C7.19998 53.9999 5.9456 53.9999 5.39998 53.9999C4.40552 53.9999 3.59998 53.1937 3.59998 52.1999C3.59998 51.206 4.40552 50.3999 5.39998 50.3999Z" fill="white"/>
<path d="M10.8 50.3999H7.20001V53.9999H10.8V50.3999Z" fill="white"/>
<path d="M14.4 50.3999H10.8V53.9999H14.4V50.3999Z" fill="white"/>
<path d="M14.4 50.3999V53.9999H18C18 52.0116 16.3882 50.3999 14.4 50.3999Z" fill="white"/>
<path d="M23.4 50.3999C24.3941 50.3999 25.2 51.2058 25.2 52.1999C25.2 53.1941 24.3941 53.9999 23.4 53.9999C22.4059 53.9999 21.6 53.1941 21.6 52.1999C21.6 51.2058 22.4059 50.3999 23.4 50.3999Z" fill="white"/>
<path d="M30.6 50.3999C31.5941 50.3999 32.4 51.2058 32.4 52.1999C32.4 53.1941 31.5941 53.9999 30.6 53.9999C29.6059 53.9999 28.8 53.1941 28.8 52.1999C28.8 51.2058 29.6059 50.3999 30.6 50.3999Z" fill="white"/>
<path d="M46.8 52.1999C46.8 52.6194 46.8 53.9999 46.8 53.9999C46.8 53.9999 45.5746 53.9999 45 53.9998C44.5513 53.9999 43.2 53.9998 43.2 53.9998C43.2 53.9998 43.2 52.7453 43.2 52.1999C43.2001 51.2058 44.0059 50.3999 45 50.3999C45.9941 50.3999 46.8 51.2058 46.8 52.1999Z" fill="white"/>
<path d="M75.6 50.3999H72V53.9999H75.6V50.3999Z" fill="white"/>
<path d="M81 50.3999C81.4196 50.3999 82.8 50.3999 82.8 50.3999C82.8 50.3999 82.8 51.6252 82.8 52.1999C82.8 52.6485 82.8 53.9999 82.8 53.9999C82.8 53.9999 81.5456 53.9999 81 53.9999C80.0056 53.9999 79.2 53.1937 79.2 52.1999C79.2 51.206 80.0056 50.3999 81 50.3999Z" fill="white"/>
<path d="M84.6 53.9999C84.1804 53.9999 82.8 53.9999 82.8 53.9999C82.8 53.9999 82.8 52.7744 82.8 52.1999C82.8 51.7512 82.8 50.3999 82.8 50.3999C82.8 50.3999 84.0547 50.3999 84.6 50.3999C85.594 50.3999 86.4 51.2058 86.4 52.1999C86.4 53.194 85.594 53.9999 84.6 53.9999Z" fill="white"/>
<path d="M1.8 54C2.79415 54 3.6 54.8059 3.6 55.8C3.6 56.7942 2.79415 57.6 1.8 57.6C0.805896 57.6 0 56.7942 0 55.8C0 54.8059 0.805896 54 1.8 54Z" fill="white"/>
<path d="M14.4 57.6V54H10.8C10.8 55.9882 12.4117 57.6 14.4 57.6Z" fill="white"/>
<path d="M18 54H14.4V57.6H18V54Z" fill="white"/>
<path d="M19.8 57.6C19.3804 57.6 18 57.6 18 57.6C18 57.6 18 56.3745 18 55.8C18 55.3513 18 54 18 54C18 54 19.2547 54 19.8 54C20.7941 54 21.6 54.8059 21.6 55.8C21.6 56.7941 20.7941 57.6 19.8 57.6Z" fill="white"/>
<path d="M28.8 55.8C28.8 56.2195 28.8 57.6 28.8 57.6C28.8 57.6 27.5746 57.6 27 57.5999C26.5513 57.6 25.2 57.5999 25.2 57.5999C25.2 57.5999 25.2 56.3454 25.2 55.8C25.2001 54.8059 26.0059 54 27 54C27.9941 54 28.8 54.8059 28.8 55.8Z" fill="white"/>
<path d="M34.2 54C34.6196 54 36 54 36 54C36 54 36 55.2253 36 55.8C36 56.2486 36 57.6 36 57.6C36 57.6 34.7456 57.6 34.2 57.6C33.2056 57.6 32.4 56.7938 32.4 55.8C32.4 54.8061 33.2056 54 34.2 54Z" fill="white"/>
<path d="M37.8 57.6C37.3804 57.6 36 57.6 36 57.6C36 57.6 36 56.3745 36 55.8C36 55.3513 36 54 36 54C36 54 37.2547 54 37.8 54C38.7941 54 39.6 54.8059 39.6 55.8C39.6 56.7941 38.7941 57.6 37.8 57.6Z" fill="white"/>
<path d="M43.2 55.8C43.2 55.3804 43.2 54 43.2 54C43.2 54 44.4255 54 45 54C45.4487 54 46.8 54 46.8 54C46.8 54 46.8 55.2547 46.8 55.8C46.8 56.7941 45.9941 57.6 45 57.6C44.0059 57.6 43.2 56.7941 43.2 55.8Z" fill="white"/>
<path d="M57.6 57.6H61.2V54C59.2118 54 57.6 55.6117 57.6 57.6Z" fill="white"/>
<path d="M61.2 54V57.6H64.8C64.8 55.6117 63.1882 54 61.2 54Z" fill="white"/>
<path d="M68.4 57.6H72V54C70.0118 54 68.4 55.6117 68.4 57.6Z" fill="white"/>
<path d="M75.6 54H72V57.6H75.6V54Z" fill="white"/>
<path d="M90 55.8C90 56.2195 90 57.6 90 57.6C90 57.6 88.7746 57.6 88.2 57.5999C87.7513 57.6 86.4 57.5999 86.4 57.5999C86.4 57.5999 86.4 56.3454 86.4 55.8C86.4001 54.8059 87.2059 54 88.2 54C89.1941 54 90 54.8059 90 55.8Z" fill="white"/>
<path d="M9.00001 57.6001C9.99417 57.6001 10.8 58.406 10.8 59.4001C10.8 60.3943 9.99417 61.2001 9.00001 61.2001C8.00591 61.2001 7.20001 60.3943 7.20001 59.4001C7.20001 58.406 8.00591 57.6001 9.00001 57.6001Z" fill="white"/>
<path d="M23.4 57.6001C23.8195 57.6001 25.2 57.6001 25.2 57.6001C25.2 57.6001 25.2 58.8254 25.2 59.4001C25.2 59.8487 25.2 61.2001 25.2 61.2001C25.2 61.2001 23.9456 61.2001 23.4 61.2001C22.4055 61.2001 21.6 60.3938 21.6 59.4001C21.6 58.4062 22.4055 57.6001 23.4 57.6001Z" fill="white"/>
<path d="M28.8 57.6001H25.2V61.2001H28.8V57.6001Z" fill="white"/>
<path d="M28.8 57.6001V61.2001H32.4C32.4 59.2118 30.7882 57.6001 28.8 57.6001Z" fill="white"/>
<path d="M41.4 57.6001C42.3941 57.6001 43.2 58.406 43.2 59.4001C43.2 60.3943 42.3941 61.2001 41.4 61.2001C40.4059 61.2001 39.6 60.3943 39.6 59.4001C39.6 58.406 40.4059 57.6001 41.4 57.6001Z" fill="white"/>
<path d="M50.4 59.4001C50.4 59.8196 50.4 61.2001 50.4 61.2001C50.4 61.2001 49.1746 61.2001 48.6 61.2C48.1513 61.2001 46.8 61.2 46.8 61.2C46.8 61.2 46.8 59.9455 46.8 59.4001C46.8 58.406 47.6059 57.6001 48.5999 57.6001C49.594 57.6001 50.4 58.406 50.4 59.4001Z" fill="white"/>
<path d="M55.8 57.6001C56.2195 57.6001 57.6 57.6001 57.6 57.6001C57.6 57.6001 57.6 58.8254 57.6 59.4001C57.6 59.8487 57.6 61.2001 57.6 61.2001C57.6 61.2001 56.3456 61.2001 55.8 61.2001C54.8055 61.2001 54 60.3938 54 59.4001C54 58.4062 54.8055 57.6001 55.8 57.6001Z" fill="white"/>
<path d="M61.2 57.6001H57.6V61.2001H61.2V57.6001Z" fill="white"/>
<path d="M64.8 57.6001H61.2V61.2001H64.8V57.6001Z" fill="white"/>
<path d="M68.4 57.6001H64.8V61.2001H68.4V57.6001Z" fill="white"/>
<path d="M72 57.6001H68.4V61.2001H72V57.6001Z" fill="white"/>
<path d="M75.6 57.6001H72V61.2001H75.6V57.6001Z" fill="white"/>
<path d="M79.2 57.6001H75.6V61.2001H79.2V57.6001Z" fill="white"/>
<path d="M82.8 57.6001H79.2V61.2001H82.8V57.6001Z" fill="white"/>
<path d="M86.4 57.6001H82.8V61.2001H86.4V57.6001Z" fill="white"/>
<path d="M90 57.6001H86.4V61.2001H90V57.6001Z" fill="white"/>
<path d="M32.4 61.2H28.8V64.8H32.4V61.2Z" fill="white"/>
<path d="M39.6 63C39.6 63.4195 39.6 64.8 39.6 64.8C39.6 64.8 38.3746 64.8 37.8 64.7999C37.3513 64.8 36 64.7999 36 64.7999C36 64.7999 36 63.5453 36 62.9999C36 62.0059 36.8059 61.2 37.8 61.2C38.7941 61.2 39.6 62.0058 39.6 63Z" fill="white"/>
<path d="M43.2 64.8H46.8V61.2C44.8118 61.2 43.2 62.8117 43.2 64.8Z" fill="white"/>
<path d="M50.4 61.2H46.8V64.8H50.4V61.2Z" fill="white"/>
<path d="M61.2 61.2H57.6V64.8H61.2V61.2Z" fill="white"/>
<path d="M75.6 61.2H72V64.8H75.6V61.2Z" fill="white"/>
<path d="M82.8 61.2H79.2V64.8H82.8V61.2Z" fill="white"/>
<path d="M90 61.2H86.4V64.8H90V61.2Z" fill="white"/>
<path d="M32.4 64.8H28.8V68.4H32.4V64.8Z" fill="white"/>
<path d="M36 64.8H32.4V68.4H36V64.8Z" fill="white"/>
<path d="M39.6 64.8H36V68.4H39.6V64.8Z" fill="white"/>
<path d="M43.2 64.8H39.6V68.4H43.2V64.8Z" fill="white"/>
<path d="M46.8 64.8H43.2V68.4H46.8V64.8Z" fill="white"/>
<path d="M50.4 64.8H46.8V68.4C48.7882 68.4 50.4 66.7883 50.4 64.8Z" fill="white"/>
<path d="M61.2 64.8H57.6V68.4H61.2V64.8Z" fill="white"/>
<path d="M66.6 64.8C67.5941 64.8 68.4 65.6059 68.4 66.6C68.4 67.5942 67.5941 68.4 66.6 68.4C65.6059 68.4 64.8 67.5942 64.8 66.6C64.8 65.6059 65.6059 64.8 66.6 64.8Z" fill="white"/>
<path d="M75.6 64.8H72V68.4H75.6V64.8Z" fill="white"/>
<path d="M82.8 68.4V64.8H79.2C79.2 66.7883 80.8118 68.4 82.8 68.4Z" fill="white"/>
<path d="M86.4 64.8H82.8V68.4H86.4V64.8Z" fill="white"/>
<path d="M90 64.8H86.4V68.4H90V64.8Z" fill="white"/>
<path d="M32.4 71.9999V68.3999H28.8C28.8 70.3881 30.4117 71.9999 32.4 71.9999Z" fill="white"/>
<path d="M36 68.3999H32.4V71.9999H36V68.3999Z" fill="white"/>
<path d="M39.6 68.3999H36V71.9999C37.9882 71.9999 39.6 70.3881 39.6 68.3999Z" fill="white"/>
<path d="M46.8 68.3999H43.2V71.9999H46.8V68.3999Z" fill="white"/>
<path d="M55.8 68.3999C56.2195 68.3999 57.6 68.3999 57.6 68.3999C57.6 68.3999 57.6 69.6252 57.6 70.1999C57.6 70.6485 57.6 71.9999 57.6 71.9999C57.6 71.9999 56.3456 71.9999 55.8 71.9999C54.8055 71.9999 54 71.1937 54 70.1999C54 69.206 54.8055 68.3999 55.8 68.3999Z" fill="white"/>
<path d="M61.2 68.3999H57.6V71.9999H61.2V68.3999Z" fill="white"/>
<path d="M75.6 68.3999H72V71.9999H75.6V68.3999Z" fill="white"/>
<path d="M86.4 68.3999H82.8V71.9999H86.4V68.3999Z" fill="white"/>
<path d="M90 68.3999H86.4V71.9999C88.3882 71.9999 90 70.3881 90 68.3999Z" fill="white"/>
<path d="M41.4 72C41.8195 72 43.2 72 43.2 72C43.2 72 43.2 73.2253 43.2 73.8C43.2 74.2486 43.2 75.6 43.2 75.6C43.2 75.6 41.9456 75.6 41.4 75.6C40.4055 75.6 39.6 74.7938 39.6 73.8C39.6 72.8061 40.4055 72 41.4 72Z" fill="white"/>
<path d="M46.8 72H43.2V75.6H46.8V72Z" fill="white"/>
<path d="M46.8 72V75.6H50.4C50.4 73.6117 48.7882 72 46.8 72Z" fill="white"/>
<path d="M61.2 75.6V72H57.6C57.6 73.9882 59.2117 75.6 61.2 75.6Z" fill="white"/>
<path d="M64.8 72H61.2V75.6H64.8V72Z" fill="white"/>
<path d="M68.4 72H64.8V75.6H68.4V72Z" fill="white"/>
<path d="M72 72H68.4V75.6H72V72Z" fill="white"/>
<path d="M75.6 72H72V75.6H75.6V72Z" fill="white"/>
<path d="M75.6 72V75.6H79.2C79.2 73.6117 77.5882 72 75.6 72Z" fill="white"/>
<path d="M86.4 72H82.8V75.6H86.4V72Z" fill="white"/>
<path d="M32.4 77.4001C32.4 77.8196 32.4 79.2001 32.4 79.2001C32.4 79.2001 31.1746 79.2001 30.6 79.2C30.1513 79.2001 28.8 79.2 28.8 79.2C28.8 79.2 28.8 77.9455 28.8 77.4001C28.8 76.406 29.6059 75.6001 30.5999 75.6001C31.594 75.6001 32.4 76.406 32.4 77.4001Z" fill="white"/>
<path d="M46.8 75.6001H43.2V79.2001H46.8V75.6001Z" fill="white"/>
<path d="M50.4 75.6001H46.8V79.2001H50.4V75.6001Z" fill="white"/>
<path d="M57.6 77.4001C57.6 77.8196 57.6 79.2001 57.6 79.2001C57.6 79.2001 56.3746 79.2001 55.8 79.2C55.3513 79.2001 54 79.2 54 79.2C54 79.2 54 77.9455 54 77.4001C54 76.406 54.8059 75.6001 55.8 75.6001C56.7941 75.6001 57.6 76.406 57.6 77.4001Z" fill="white"/>
<path d="M68.4 75.6001H64.8V79.2001H68.4V75.6001Z" fill="white"/>
<path d="M75.6 75.6001H72V79.2001H75.6V75.6001Z" fill="white"/>
<path d="M79.2 75.6001H75.6V79.2001H79.2V75.6001Z" fill="white"/>
<path d="M82.8 75.6001H79.2V79.2001H82.8V75.6001Z" fill="white"/>
<path d="M86.4 75.6001H82.8V79.2001H86.4V75.6001Z" fill="white"/>
<path d="M88.2 79.2001C87.7805 79.2001 86.4 79.2001 86.4 79.2001C86.4 79.2001 86.4 77.9746 86.4 77.4001C86.4 76.9514 86.4 75.6001 86.4 75.6001C86.4 75.6001 87.6547 75.6001 88.2 75.6001C89.1941 75.6001 90 76.406 90 77.4001C90 78.3942 89.1941 79.2001 88.2 79.2001Z" fill="white"/>
<path d="M28.8 81C28.8 80.5804 28.8 79.2 28.8 79.2C28.8 79.2 30.0254 79.2 30.6 79.2C31.0487 79.2 32.4 79.2 32.4 79.2C32.4 79.2 32.4 80.4546 32.4 81C32.4 81.994 31.594 82.8 30.6 82.8C29.6059 82.8 28.8 81.994 28.8 81Z" fill="white"/>
<path d="M37.8 79.2C38.2195 79.2 39.6 79.2 39.6 79.2C39.6 79.2 39.6 80.4253 39.6 81C39.6 81.4485 39.6 82.8 39.6 82.8C39.6 82.8 38.3456 82.8 37.8 82.8C36.8055 82.8 36 81.9937 36 81C36 80.0061 36.8055 79.2 37.8 79.2Z" fill="white"/>
<path d="M43.2 79.2H39.6V82.8H43.2V79.2Z" fill="white"/>
<path d="M46.8 79.2H43.2V82.8H46.8V79.2Z" fill="white"/>
<path d="M50.4 79.2H46.8V82.8C48.7882 82.8 50.4 81.1882 50.4 79.2Z" fill="white"/>
<path d="M57.6 79.2H54V82.8H57.6V79.2Z" fill="white"/>
<path d="M61.2 82.8H64.8V79.2C62.8118 79.2 61.2 80.8117 61.2 82.8Z" fill="white"/>
<path d="M68.4 79.2H64.8V82.8H68.4V79.2Z" fill="white"/>
<path d="M75.6 79.2H72V82.8H75.6V79.2Z" fill="white"/>
<path d="M82.8 79.2H79.2V82.8H82.8V79.2Z" fill="white"/>
<path d="M86.4 79.2H82.8V82.8C84.7882 82.8 86.4 81.1882 86.4 79.2Z" fill="white"/>
<path d="M36 84.6C36 85.0196 36 86.4 36 86.4C36 86.4 34.7746 86.4 34.2 86.4C33.7513 86.4 32.4 86.4 32.4 86.4C32.4 86.4 32.4 85.1454 32.4 84.6C32.4001 83.606 33.2059 82.8 34.2 82.8C35.1941 82.8 36 83.6059 36 84.6Z" fill="white"/>
<path d="M54 84.6C54 84.1805 54 82.8 54 82.8C54 82.8 55.2254 82.8 55.8 82.8C56.2487 82.8 57.6 82.8 57.6 82.8C57.6 82.8 57.6 84.0547 57.6 84.6C57.6 85.5941 56.7941 86.4 55.8 86.4C54.8059 86.4 54 85.5941 54 84.6Z" fill="white"/>
<path d="M64.8 86.4V82.8H61.2C61.2 84.7883 62.8118 86.4 64.8 86.4Z" fill="white"/>
<path d="M68.4 82.8H64.8V86.4C66.7882 86.4 68.4 84.7883 68.4 82.8Z" fill="white"/>
<path d="M75.6 82.8H72V86.4H75.6V82.8Z" fill="white"/>
<path d="M82.8 82.8H79.2V86.4H82.8V82.8Z" fill="white"/>
<path d="M30.6 86.3999C31.0195 86.3999 32.4 86.3999 32.4 86.3999C32.4 86.3999 32.4 87.6252 32.4 88.1999C32.4 88.6485 32.4 89.9999 32.4 89.9999C32.4 89.9999 31.1456 89.9999 30.6 89.9999C29.6055 89.9999 28.8 89.1937 28.8 88.1999C28.8 87.206 29.6055 86.3999 30.6 86.3999Z" fill="white"/>
<path d="M36 86.3999H32.4V89.9999C34.3882 89.9999 36 88.3881 36 86.3999Z" fill="white"/>
<path d="M45 86.3999C45.9942 86.3999 46.8 87.2058 46.8 88.1999C46.8 89.1941 45.9942 89.9999 45 89.9999C44.0059 89.9999 43.2 89.1941 43.2 88.1999C43.2 87.2058 44.0059 86.3999 45 86.3999Z" fill="white"/>
<path d="M52.2 86.3999C53.1942 86.3999 54 87.2058 54 88.1999C54 89.1941 53.1942 89.9999 52.2 89.9999C51.2059 89.9999 50.4 89.1941 50.4 88.1999C50.4 87.2058 51.2059 86.3999 52.2 86.3999Z" fill="white"/>
<path d="M70.2 86.3999C70.6196 86.3999 72 86.3999 72 86.3999C72 86.3999 72 87.6252 72 88.1999C72 88.6485 72 89.9999 72 89.9999C72 89.9999 70.7456 89.9999 70.2 89.9999C69.2056 89.9999 68.4 89.1937 68.4 88.1999C68.4 87.206 69.2056 86.3999 70.2 86.3999Z" fill="white"/>
<path d="M75.6 86.3999H72V89.9999H75.6V86.3999Z" fill="white"/>
<path d="M79.2 86.3999H75.6V89.9999H79.2V86.3999Z" fill="white"/>
<path d="M82.8 86.3999H79.2V89.9999H82.8V86.3999Z" fill="white"/>
<path d="M86.4 86.3999H82.8V89.9999H86.4V86.3999Z" fill="white"/>
<path d="M88.2 89.9999C87.7805 89.9999 86.4 89.9999 86.4 89.9999C86.4 89.9999 86.4 88.7744 86.4 88.1999C86.4 87.7512 86.4 86.3999 86.4 86.3999C86.4 86.3999 87.6547 86.3999 88.2 86.3999C89.1941 86.3999 90 87.2058 90 88.1999C90 89.194 89.1941 89.9999 88.2 89.9999Z" fill="white"/>
<path d="M16.5965 0.0020752H8.60353C4.70812 0.0020752 1.40792 2.57575 0.3528 6.09342C0.243684 6.45731 0.158508 6.83127 0.099288 7.21356C0.03402 7.63541 0 8.06733 0 8.50707V16.6898C0 21.3818 3.86064 25.1973 8.60353 25.1973L12.6 25.198L16.5965 25.197C21.3391 25.197 25.2 21.3815 25.2 16.6895V8.50707C25.2 3.81735 21.3394 0.0020752 16.5965 0.0020752ZM21.42 16.6898C21.42 19.2965 19.2563 21.4173 16.5955 21.4173L12.6 21.418L8.60454 21.417C5.94367 21.417 3.78 19.2962 3.78 16.6898V8.50707C3.78 7.69286 3.99118 6.92628 4.36288 6.25646C4.72072 5.6121 5.22698 5.05795 5.83657 4.63837C6.62029 4.09884 7.57462 3.78207 8.60328 3.78207H16.5965C19.2563 3.78207 21.42 5.90165 21.42 8.50707V16.6898Z" fill="white"/>
<path d="M81.3965 0.0020752H73.4035C69.5081 0.0020752 66.2079 2.57575 65.1528 6.09342C65.0437 6.45731 64.9585 6.83127 64.8993 7.21356C64.834 7.63541 64.8 8.06733 64.8 8.50707V16.6898C64.8 21.3818 68.6606 25.1973 73.4035 25.1973L77.4 25.198L81.3965 25.197C86.1391 25.197 90 21.3815 90 16.6895V8.50707C90 3.81735 86.1393 0.0020752 81.3965 0.0020752ZM86.22 16.6898C86.22 19.2965 84.0563 21.4173 81.3954 21.4173L77.4 21.418L73.4045 21.417C70.7437 21.417 68.58 19.2962 68.58 16.6898V8.50707C68.58 7.69286 68.7912 6.92628 69.1629 6.25646C69.5207 5.6121 70.027 5.05795 70.6366 4.63837C71.4203 4.09884 72.3746 3.78207 73.4033 3.78207H81.3965C84.0563 3.78207 86.22 5.90165 86.22 8.50707V16.6898Z" fill="white"/>
<path d="M16.5965 64.802H8.60353C4.70812 64.802 1.40792 67.3757 0.3528 70.8933C0.243684 71.2572 0.158508 71.6312 0.099288 72.0135C0.03402 72.4353 0 72.8673 0 73.307V81.4897C0 86.1817 3.86064 89.9972 8.60353 89.9972L12.6 89.998L16.5965 89.997C21.3391 89.997 25.2 86.1814 25.2 81.4894V73.307C25.2 68.6173 21.3394 64.802 16.5965 64.802ZM21.42 81.4897C21.42 84.0964 19.2563 86.2172 16.5955 86.2172L12.6 86.218L8.60454 86.217C5.94367 86.217 3.78 84.0961 3.78 81.4897V73.307C3.78 72.4928 3.99118 71.7262 4.36288 71.0564C4.72072 70.412 5.22698 69.8579 5.83657 69.4383C6.62029 68.8988 7.57462 68.582 8.60328 68.582H16.5965C19.2563 68.582 21.42 70.7016 21.42 73.307V81.4897Z" fill="white"/>
<path d="M12.4941 17.7882C15.418 17.7882 17.7882 15.4179 17.7882 12.4941C17.7882 9.57021 15.418 7.19995 12.4941 7.19995C9.57027 7.19995 7.20001 9.57021 7.20001 12.4941C7.20001 15.4179 9.57027 17.7882 12.4941 17.7882Z" fill="white"/>
<path d="M77.2941 17.7882C80.218 17.7882 82.5882 15.4179 82.5882 12.4941C82.5882 9.57021 80.218 7.19995 77.2941 7.19995C74.3703 7.19995 72 9.57021 72 12.4941C72 15.4179 74.3703 17.7882 77.2941 17.7882Z" fill="white"/>
<path d="M12.4941 82.5882C15.418 82.5882 17.7882 80.218 17.7882 77.2941C17.7882 74.3703 15.418 72 12.4941 72C9.57027 72 7.20001 74.3703 7.20001 77.2941C7.20001 80.218 9.57027 82.5882 12.4941 82.5882Z" fill="white"/>
</svg>
