<svg width="40" height="40" viewBox="0 0 40 40" fill="none" xmlns="http://www.w3.org/2000/svg">
<path d="M28.5 2.59751H35.5L11.5 37.4523H4.5L28.5 2.59751ZM8.5 19.1286C7.2 19.1286 6.03333 18.9295 5 18.5311C3.96667 18.1328 3.06667 17.5685 2.3 16.8382C1.56667 16.1079 1 15.2448 0.6 14.249C0.2 13.2199 0 12.0747 0 10.8133V10.3154C0 9.08714 0.2 7.9585 0.6 6.92946C1 5.90041 1.56667 5.02075 2.3 4.29046C3.06667 3.56017 3.96667 2.99585 5 2.59751C6.03333 2.19917 7.2 2 8.5 2C9.8 2 10.9667 2.19917 12 2.59751C13.0333 2.99585 13.9167 3.56017 14.65 4.29046C15.4167 5.02075 16 5.90041 16.4 6.92946C16.8 7.9585 17 9.08714 17 10.3154V10.8133C17 12.0747 16.8 13.2199 16.4 14.249C16 15.2448 15.4167 16.1079 14.65 16.8382C13.9167 17.5685 13.0333 18.1328 12 18.5311C10.9667 18.9295 9.8 19.1286 8.5 19.1286ZM8.5 13.9502C9.16667 13.9502 9.7 13.7178 10.1 13.2531C10.5 12.7552 10.7 11.9419 10.7 10.8133V10.3154C10.7 9.18672 10.5 8.39004 10.1 7.92531C9.7 7.42738 9.16667 7.17842 8.5 7.17842C7.83333 7.17842 7.3 7.42738 6.9 7.92531C6.5 8.39004 6.3 9.18672 6.3 10.3154V10.8133C6.3 11.9419 6.5 12.7552 6.9 13.2531C7.3 13.7178 7.83333 13.9502 8.5 13.9502ZM31.5 38C30.2 38 29.0333 37.8008 28 37.4025C26.9667 37.0041 26.0667 36.4398 25.3 35.7095C24.5667 34.9793 24 34.1162 23.6 33.1203C23.2 32.0913 23 30.9461 23 29.6846V29.1867C23 27.9585 23.2 26.8299 23.6 25.8008C24 24.7718 24.5667 23.8921 25.3 23.1618C26.0667 22.4315 26.9667 21.8672 28 21.4689C29.0333 21.0705 30.2 20.8714 31.5 20.8714C32.8 20.8714 33.9667 21.0705 35 21.4689C36.0333 21.8672 36.9167 22.4315 37.65 23.1618C38.4167 23.8921 39 24.7718 39.4 25.8008C39.8 26.8299 40 27.9585 40 29.1867V29.6846C40 30.9461 39.8 32.0913 39.4 33.1203C39 34.1162 38.4167 34.9793 37.65 35.7095C36.9167 36.4398 36.0333 37.0041 35 37.4025C33.9667 37.8008 32.8 38 31.5 38ZM31.5 32.8216C32.1667 32.8216 32.7 32.5892 33.1 32.1245C33.5 31.6266 33.7 30.8133 33.7 29.6846V29.1867C33.7 28.0581 33.5 27.2614 33.1 26.7967C32.7 26.2988 32.1667 26.0498 31.5 26.0498C30.8333 26.0498 30.3 26.2988 29.9 26.7967C29.5 27.2614 29.3 28.0581 29.3 29.1867V29.6846C29.3 30.8133 29.5 31.6266 29.9 32.1245C30.3 32.5892 30.8333 32.8216 31.5 32.8216Z" fill="#FF5A1E"/>
</svg>
