<svg width="40" height="40" viewBox="0 0 40 40" fill="none" xmlns="http://www.w3.org/2000/svg">
<path d="M21.6833 4.86667L31.5167 9.23333C34.35 10.4833 34.35 12.55 31.5167 13.8L21.6833 18.1667C20.5667 18.6667 18.7333 18.6667 17.6167 18.1667L7.78333 13.8C4.94999 12.55 4.94999 10.4833 7.78333 9.23333L17.6167 4.86667C18.7333 4.36667 20.5667 4.36667 21.6833 4.86667Z" stroke="#FF5A1E" stroke-width="4" stroke-linecap="round" stroke-linejoin="round"/>
<path d="M5 18.3333C5 19.7333 6.05 21.35 7.33333 21.9167L18.65 26.95C19.5167 27.3333 20.5 27.3333 21.35 26.95L32.6667 21.9167C33.95 21.35 35 19.7333 35 18.3333" stroke="#FF5A1E" stroke-width="4" stroke-linecap="round" stroke-linejoin="round"/>
<path d="M5 26.6667C5 28.2167 5.91667 29.6167 7.33333 30.25L18.65 35.2833C19.5167 35.6667 20.5 35.6667 21.35 35.2833L32.6667 30.25C34.0833 29.6167 35 28.2167 35 26.6667" stroke="#FF5A1E" stroke-width="4" stroke-linecap="round" stroke-linejoin="round"/>
</svg>
